<svg version="1.1" id="Layer_1" xmlns="http://www.w3.org/2000/svg" xmlns:xlink="http://www.w3.org/1999/xlink" x="0px" y="0px"
	 width="100%" viewBox="0 0 1024 1024" enable-background="new 0 0 1024 1024" xml:space="preserve">
<path fill="#000000" opacity="1.000000" stroke="none" 
	d="
M639.143188,439.933716 
	C638.121399,440.515411 637.365479,440.867584 636.570496,441.049042 
	C635.775696,441.230469 634.941895,441.241089 633.863831,441.353882 
	C636.459229,442.361542 642.260681,441.178589 637.166626,446.517426 
	C636.434570,470.314362 623.851074,488.481659 608.108215,504.468933 
	C590.862671,521.982300 569.256042,531.478821 544.771973,534.238770 
	C543.120667,534.424927 541.490479,534.795837 539.839966,534.992554 
	C536.793152,535.355774 534.513184,534.768799 534.635986,530.925476 
	C534.691040,529.202393 534.307678,527.305969 531.976074,527.602051 
	C529.923462,527.862732 530.276062,529.787598 530.250427,531.214355 
	C530.178528,535.211426 530.242188,539.210999 530.177124,543.208313 
	C530.147339,545.043579 530.189758,547.092163 527.525818,547.153198 
	C524.851685,547.214539 524.797485,545.251648 524.779907,543.354004 
	C524.747498,539.855835 524.668213,536.355164 524.760620,532.859558 
	C524.844177,529.699219 523.323120,528.242615 520.287048,528.173889 
	C517.123413,528.102234 513.958862,528.024353 510.794739,528.023682 
	C485.805908,528.018005 460.817047,528.028198 435.828217,528.038757 
	C431.850647,528.040405 427.583893,527.288452 427.036072,533.363525 
	C426.850006,535.426880 424.468445,535.095642 422.844543,534.953796 
	C367.581482,530.126404 330.233521,489.197113 324.931671,439.405518 
	C319.738800,390.637268 349.842987,343.662628 395.441315,328.276459 
	C406.407135,324.576263 417.699829,322.759949 429.263000,322.749695 
	C464.080933,322.718750 498.904877,322.330841 533.715332,322.841766 
	C575.539001,323.455597 606.759888,342.821747 627.742798,378.704742 
	C635.248840,391.540985 638.148621,405.951447 640.083618,420.566345 
	C640.789795,425.900330 636.417969,424.976379 633.337158,426.194611 
	C633.445312,428.185974 633.549561,430.104645 633.647583,431.908539 
	C640.689270,433.574493 640.689270,433.574493 639.143188,439.933716 
M597.799072,381.750397 
	C612.959412,402.827484 617.030151,425.833527 610.255127,450.927948 
	C602.454224,479.822083 573.836731,504.379913 544.191406,507.355286 
	C541.840088,507.591309 539.785706,508.000946 539.581116,504.698883 
	C539.502441,503.429047 538.828491,502.348206 537.392395,502.501038 
	C535.738831,502.676971 535.358276,504.058563 535.314209,505.457886 
	C535.235535,507.955017 535.404785,510.469025 535.184875,512.950684 
	C534.752258,517.831238 537.349609,519.208679 541.574402,518.656982 
	C546.844299,517.968811 552.109070,517.365112 557.293823,515.989502 
	C611.608276,501.578003 643.705933,440.274506 612.968994,384.192780 
	C598.726501,358.206238 575.360596,344.012726 546.294983,339.198547 
	C544.091675,338.833618 542.837280,338.256195 542.702332,336.043549 
	C542.499573,332.721344 540.370056,331.992676 537.557739,332.007965 
	C531.559570,332.040558 525.561157,332.040009 519.562805,332.036591 
	C489.070374,332.019226 458.577972,332.005981 428.085571,331.961761 
	C424.926971,331.957184 421.898407,331.862000 421.844513,336.318420 
	C421.827942,337.688477 420.886597,339.683014 419.648865,338.908783 
	C416.949432,337.220215 415.322845,339.615631 413.322876,340.023285 
	C404.023773,341.918671 394.959076,344.766266 386.696320,349.561554 
	C364.190094,362.623047 349.083374,381.430298 342.339050,406.797058 
	C341.363953,410.464600 341.407593,415.169952 335.793213,416.345062 
	C340.006958,418.711334 338.210175,420.262512 336.081879,422.094879 
	C330.818573,426.626404 331.434784,431.350037 337.617706,434.155640 
	C339.158936,434.854980 340.176056,435.745361 340.162903,437.448639 
	C340.114441,443.708191 342.154419,449.533081 343.838165,455.431030 
	C353.939209,490.814209 389.094849,519.870544 431.083984,518.896729 
	C459.395081,518.240173 487.734436,518.868835 516.059631,518.688293 
	C521.183411,518.655640 525.608765,518.589233 526.292358,525.125732 
	C526.304321,525.239807 526.876892,525.295349 527.202454,525.382080 
	C529.134338,524.737488 528.805115,523.032410 528.838013,521.624329 
	C528.919617,518.127686 528.862366,514.627625 528.850159,511.128967 
	C528.814514,500.909576 528.812622,500.957550 518.913757,500.978577 
	C502.751251,501.012970 486.588654,500.975189 470.426086,500.972687 
	C457.429321,500.970673 444.432465,500.947113 431.435944,501.003296 
	C429.008881,501.013794 425.881622,500.592163 425.531097,504.060120 
	C425.163025,507.701660 423.356934,507.674683 420.440033,507.384949 
	C379.214661,503.290039 347.574860,463.322205 351.296936,422.080353 
	C354.905304,382.098297 389.364807,348.772003 432.476593,349.666595 
	C465.953705,350.361298 499.457214,349.747955 532.948914,349.789032 
	C559.477234,349.821564 581.005005,360.224457 597.799072,381.750397 
M513.500000,376.824219 
	C520.664368,376.817932 527.829590,376.739258 534.992981,376.819855 
	C551.772156,377.008575 565.271057,384.238739 575.438843,397.161682 
	C592.675110,419.068512 589.658020,449.303314 568.792969,467.892883 
	C563.518433,472.592255 557.487488,476.082764 550.645996,478.113861 
	C548.516113,478.746185 546.867310,477.588806 545.021973,477.132477 
	C542.440918,476.494232 542.214050,480.483978 539.742737,479.906647 
	C537.876465,478.685303 539.049133,475.795471 536.718201,474.897766 
	C534.513794,475.748352 534.750610,477.737701 534.664978,479.489838 
	C534.551514,481.810608 534.880371,484.184021 534.518311,486.454956 
	C533.836487,490.731628 536.029480,492.024200 539.636780,491.622284 
	C543.591248,491.181641 547.621643,490.737823 551.409607,489.598907 
	C575.257629,482.428406 590.855652,466.751953 596.319275,442.510010 
	C601.590027,419.123840 594.882080,398.673035 577.213013,382.214569 
	C569.655518,375.174835 560.748840,370.451080 550.612976,368.045288 
	C547.428650,367.289429 543.302856,367.156342 542.108398,363.439850 
	C540.987305,359.951813 538.944641,359.166748 535.819580,359.168060 
	C499.495758,359.183014 463.171906,359.151550 426.848145,359.191956 
	C423.281677,359.195923 420.323730,360.334045 417.633881,363.209229 
	C415.648010,365.331940 413.649536,367.740051 410.427612,368.871643 
	C385.581055,377.598389 371.000366,395.018372 367.053467,421.142334 
	C366.655548,423.776001 366.151672,425.989166 363.079498,426.698273 
	C361.744476,427.006439 360.765076,428.117737 360.647949,429.589020 
	C360.514923,431.259766 361.788025,432.012054 363.101990,432.283691 
	C366.194458,432.923065 366.780518,435.156860 367.157318,437.788391 
	C371.593414,468.770020 398.353180,492.343811 429.861389,491.709137 
	C462.290680,491.056000 494.751251,493.184509 527.158325,490.589294 
	C532.667358,490.148163 533.159973,489.305664 530.752686,484.134766 
	C530.402100,483.381622 530.026001,482.632477 529.763306,481.847504 
	C527.293091,474.466309 525.838135,473.394257 517.979492,473.394287 
	C490.819855,473.394440 463.660248,473.408386 436.500610,473.423035 
	C435.001617,473.423828 433.494904,473.392303 432.005280,473.526093 
	C429.103088,473.786682 426.302795,474.151703 425.916931,478.016479 
	C425.731384,479.874878 424.462097,480.213531 422.615601,479.907562 
	C416.864471,478.954590 411.080505,477.946960 405.934692,475.174805 
	C388.129059,465.582520 378.748291,450.184509 377.920929,430.334717 
	C376.687378,400.738922 400.334290,376.938507 430.021423,376.875305 
	C457.514191,376.816803 485.007141,376.838165 513.500000,376.824219 
M476.500000,386.187286 
	C461.516052,386.183990 446.532074,386.196350 431.548187,386.165710 
	C428.101776,386.158630 424.218781,386.440338 422.741058,389.614777 
	C420.956329,393.448853 417.886505,394.731903 414.591370,396.180939 
	C399.862915,402.657867 393.273926,415.664703 393.475464,429.498322 
	C393.764435,449.329803 409.713928,464.601654 429.578735,464.655426 
	C464.541016,464.750031 499.503723,464.696503 534.466248,464.675049 
	C538.812561,464.672394 543.106873,464.030579 547.192322,462.540314 
	C560.497620,457.686890 570.161499,445.038147 570.772949,431.845551 
	C571.505798,416.033875 563.809814,402.944153 549.748535,396.386780 
	C547.272766,395.232208 544.905396,394.250244 544.561890,390.982941 
	C544.152832,393.050842 543.324646,393.788971 541.334839,393.377747 
	C539.633850,393.026215 537.868896,392.910553 537.655396,390.774689 
	C537.227417,386.493256 534.486206,386.133209 530.942322,386.155243 
	C513.128906,386.266205 495.314240,386.194366 476.500000,386.187286 
z"/>
<path fill="#000000" opacity="1.000000" stroke="none" 
	d="
M317.291412,397.210815 
	C307.685242,438.082306 314.217987,475.610291 341.866638,507.002411 
	C369.385864,538.247559 406.146362,548.657043 447.301025,545.544373 
	C447.183960,546.164001 447.066895,546.783691 446.949829,547.403320 
	C435.513947,547.403320 424.078094,547.406555 412.642212,547.402649 
	C380.989227,547.391907 349.335663,547.281677 317.683807,547.466858 
	C312.781647,547.495544 311.548615,545.894470 311.556885,541.178284 
	C311.687927,466.377594 311.693359,391.576508 311.555756,316.775848 
	C311.546875,311.945831 312.967590,310.531799 317.762482,310.566650 
	C346.580444,310.776062 375.400574,310.677673 404.219757,310.756012 
	C405.992096,310.760834 408.210999,310.015839 409.853851,312.745361 
	C363.066345,323.519775 331.273224,350.422272 317.291412,397.210815 
z"/>
<path fill="#000000" opacity="1.000000" stroke="none" 
	d="
M633.602783,491.610413 
	C655.639404,454.798828 657.557922,416.442993 640.234253,378.428833 
	C622.685913,339.921875 590.505920,318.962830 548.787109,312.517242 
	C549.577087,310.167023 551.117615,310.738678 552.289551,310.736908 
	C583.947021,310.689423 615.604736,310.733643 647.261719,310.593842 
	C651.198730,310.576447 652.431091,311.877319 652.408386,315.775635 
	C652.183716,354.262848 652.023315,392.750946 652.018921,431.238800 
	C652.014832,467.559326 652.227173,503.879822 652.327026,540.200378 
	C652.346680,547.355896 652.310303,547.373840 645.277039,547.372742 
	C610.452637,547.367371 575.628296,547.360901 540.803955,547.313843 
	C539.034241,547.311401 537.149719,547.802734 534.347168,545.948975 
	C576.860901,543.998779 610.163574,526.947937 633.602783,491.610413 
z"/>
<path fill="#000000" opacity="1.000000" stroke="none" 
	d="
M482.999939,429.329681 
	C468.837341,429.325134 455.137665,429.926025 441.525757,429.093170 
	C433.037537,428.573730 428.080322,431.816437 422.852386,438.025238 
	C419.426697,442.093658 420.902252,446.361023 419.425629,450.439423 
	C415.687653,450.619080 413.595917,448.333008 411.746857,446.135986 
	C405.179932,438.333466 402.494263,429.582672 406.562103,419.720398 
	C410.752716,409.560547 418.833313,404.178741 429.514496,404.079834 
	C464.501068,403.755829 499.493286,403.782043 534.481201,404.005646 
	C546.485779,404.082367 556.222961,412.560272 558.868591,424.029541 
	C561.322021,434.665894 556.574951,445.045654 546.723816,450.704926 
	C543.908569,452.322235 540.918823,452.911316 537.290771,452.835205 
	C536.271057,447.451477 536.897461,442.147644 536.750000,436.898041 
	C536.575623,430.694061 535.314026,429.342651 528.986572,429.329773 
	C513.824402,429.298828 498.662140,429.325653 482.999939,429.329681 
z"/>
</svg>