<?xml version="1.0" encoding="UTF-8"?>
<svg id="Layer_1" data-name="Layer 1" xmlns="http://www.w3.org/2000/svg" viewBox="0 0 177.76 129.19">
  <defs>
    <style>
      .cls-1 {
        fill: #f3f0ea;
      }

      .cls-2 {
        fill: #9dbace;
      }
    </style>
  </defs>
  <path class="cls-1" d="M7.42,71.74c1.28,24.9,25.11,49.47,50.38,50.13h53.5v7.32h-55.07c-12.14,0-30.5-10.62-38.64-19.32C-19.08,70.64,4.73,3.68,59.86.69c17.46-.95,40.5-.89,57.99,0,32.25,1.65,54.08,23.7,59.23,54.86v18.28c-4.29,27.6-22.04,48.12-49.9,54.27-1.63.36-10.22,1.64-10.95.6l.26-6.59c8.91-.31,19.7-2.71,27.31-7.53,45.58-28.9,31.23-100.63-23.62-107.07-20.11.17-43.28-2.25-63.16,0C32.31,10.3,9.01,31.84,7.42,57.12c-.92,3.59-.57,7.99-.53,11.76,0,.88-.33,2.32.53,2.86Z"/>
  <path class="cls-1" d="M57.54,114.57C23.03,110.6,3.82,71.59,19.86,41.1,40.44,1.98,86.75,19.88,122.55,15.84c42.29,5.94,55.21,61.5,22.94,88.27-5.66,4.69-15.89,8.97-23.22,9.41-1.9.11-3.84-.08-5.74,0-.73-1.84-.96-4.26-.03-6.04,3.58-.18,6.62-.49,10.07-1.42,43.28-11.7,39.22-79.25-6.38-83.41.29-1.58-.8-1-1.8-1.04-18.76-.74-40.24-.63-59.04,0-1.01.03-2.09-.53-1.8,1.04-36.46,4.36-49.51,50.35-22.17,74.67,4.93,4.39,14.51,9.93,21.39,9.93h54.29c1.33.92,1.14,6.88-.26,7.31.29-1.58-.8-1-1.8-1.04-15.79-.62-33.83-.53-49.64,0-1.01.03-2.09-.53-1.8,1.04Z"/>
  <path class="cls-1" d="M59.1,99.42c-22.49-1.68-35.8-24.8-29.25-45.72,3.76-12.02,15.13-22.35,27.93-23.24,20.46-1.44,42.57,1.14,63.21,0,15.61,2.32,25.67,14.12,28.43,29.27v9.92c-2.47,12.71-8.64,22.92-21.27,27.56-1.92.7-10.73,3.42-11.91,1.72l-.23-6.3c4.76.08,10.91-1.32,14.75-4.16,20.4-15.11,14.56-47.69-11.61-50.67.29-1.58-.8-1.01-1.8-1.04-19.44-.65-39.5.05-58.75.52-6.48,1.13-12.34,3.68-16.73,8.61-8.18,9.19-9.59,22.01-3.31,33.12,3.25,5.75,12.39,13.64,19.26,13.64h53.25c1.35,1.31.88,4.03.52,5.75-.15.33-.54.36-.78.51l-51.68.52Z"/>
  <path class="cls-1" d="M59.1,84.8c-14.09-1.51-21.23-19.13-13.79-30.77,3.63-5.68,8.39-8.52,15.07-8.95,19.03-1.22,39.34.98,58.51,0,22.12,3.49,22.04,36.47-.28,39.71h-59.51ZM125.72,73.63c4.96-6.1,4.08-15.8-3.09-19.75-2.72-1.5-5.85-1.82-8.95-2.01-14.7-.89-35.45-.86-50.16,0-4.59.27-7.44.51-10.88,3.74-8.79,8.25-1.77,22.22,9.4,22.86,17.39-.69,35.24,1.21,52.54-.11,4.54-.35,8.11-.98,11.15-4.72Z"/>
  <path class="cls-2" d="M57.54,22.65c-.29-1.58.8-1.01,1.8-1.04,18.8-.63,40.27-.74,59.04,0,1.01.04,2.09-.54,1.8,1.04-19.89-1.82-42.47,1.36-62.64,0Z"/>
  <path class="cls-2" d="M57.54,114.57c-.29-1.58.8-1.01,1.8-1.04,15.81-.53,33.85-.62,49.64,0,1.01.04,2.09-.54,1.8,1.04h-53.25Z"/>
  <path class="cls-2" d="M120.18,7.5h-63.16c19.88-2.25,43.05.17,63.16,0Z"/>
  <path class="cls-2" d="M58.58,37.27c19.25-.47,39.31-1.17,58.75-.52,1,.03,2.09-.53,1.8,1.04-.55-.06-1.48-.79-2.31-.54l-58.24.02Z"/>
  <path class="cls-2" d="M118.61,84.8c-18.93-1.49-40.95,1.99-59.51,0h59.51Z"/>
  <path class="cls-2" d="M110.78,98.9c-.6.38-.91.73-1.77.56-16.27-.96-33.79,1.17-49.91-.04l51.68-.52Z"/>
  <path class="cls-2" d="M177.08,73.83v-18.28c.94,5.68.89,12.55,0,18.28Z"/>
  <path class="cls-2" d="M7.42,71.74c-.86-.54-.52-1.98-.53-2.86-.04-3.77-.39-8.17.53-11.76-.28,4.41-.23,10.19,0,14.62Z"/>
  <path class="cls-2" d="M122.27,113.52v1.04s-5.69-.07-5.69-.07c-.22-.3.02-.77-.06-.97,1.9-.08,3.85.11,5.74,0Z"/>
  <path class="cls-2" d="M149.41,69.65v-9.92c.7,3.84.74,6.12,0,9.92Z"/>
</svg>